<?xml version="1.0" encoding="UTF-8" standalone="no"?>
<svg
   xmlns:dc="http://purl.org/dc/elements/1.1/"
   xmlns:cc="http://creativecommons.org/ns#"
   xmlns:rdf="http://www.w3.org/1999/02/22-rdf-syntax-ns#"
   xmlns:svg="http://www.w3.org/2000/svg"
   xmlns="http://www.w3.org/2000/svg"
   viewBox="0 0 3333.3333 3333.3333"
   height="3333.3333"
   width="3333.3333"
   xml:space="preserve"
   id="svg2"
   version="1.1"><metadata
     id="metadata8"><rdf:RDF><cc:Work
         rdf:about=""><dc:format>image/svg+xml</dc:format><dc:type
           rdf:resource="http://purl.org/dc/dcmitype/StillImage" /></cc:Work></rdf:RDF></metadata><defs
     id="defs6"><clipPath
       id="clipPath18"
       clipPathUnits="userSpaceOnUse"><path
         id="path16"
         d="M 0,2500 H 2500 V 0 H 0 Z" /></clipPath></defs><g
     transform="matrix(1.3333333,0,0,-1.3333333,0,3333.3333)"
     id="g10"><g
       id="g12"><g
         clip-path="url(#clipPath18)"
         id="g14"><g
           transform="translate(0,322.3535)"
           id="g20"><path
             id="path22"
             style="fill:#563d7c;fill-opacity:1;fill-rule:nonzero;stroke:none"
             d="M 0,0 C 0,-178.047 144.326,-322.354 322.354,-322.354 H 2177.637 C 2355.693,-322.354 2500,-178.027 2500,0 v 1855.283 c 0,178.057 -144.326,322.363 -322.354,322.363 H 322.363 C 144.307,2177.646 0,2033.32 0,1855.293 V 0.01 Z" /></g><g
           transform="translate(1036.6992,751.8066)"
           id="g24"><path
             id="path26"
             style="fill:#ffffff;fill-opacity:1;fill-rule:nonzero;stroke:none"
             d="m 0,0 v 415.518 h 362.51 c 72.08,0 130.029,-16.602 173.847,-49.825 43.809,-33.213 65.723,-88.681 65.723,-166.416 0,-39.58 -6.719,-72.08 -20.146,-97.519 C 568.506,76.318 550.488,56.172 527.871,41.338 505.264,26.494 479.111,15.898 449.434,9.531 419.746,3.184 388.662,0 356.152,0 Z M -332.842,1255.029 V -258.643 h 733.516 c 67.842,0 133.916,8.477 198.222,25.44 64.307,16.963 121.543,43.105 171.719,78.437 50.166,35.332 90.098,80.918 119.776,136.739 29.687,55.83 44.521,121.904 44.521,198.222 0,94.698 -22.969,175.606 -68.896,242.735 -45.938,67.138 -115.547,114.131 -208.829,140.986 67.842,32.5 119.083,74.199 153.711,125.078 34.62,50.879 51.934,114.473 51.934,190.801 0,70.664 -11.66,130.019 -34.98,178.076 -23.321,48.047 -56.182,86.563 -98.584,115.537 -42.393,28.975 -93.272,49.824 -152.637,62.539 -59.356,12.725 -125.078,19.082 -197.158,19.082 z M 0,642.354 v 354.033 h 311.631 c 29.687,0 58.301,-2.471 85.859,-7.422 27.559,-4.942 51.944,-13.77 73.145,-26.494 21.191,-12.725 38.154,-30.391 50.879,-52.998 12.715,-22.618 19.082,-51.592 19.082,-86.914 0,-63.604 -19.082,-109.541 -57.246,-137.803 -38.155,-28.272 -86.914,-42.402 -146.28,-42.402 z" /></g></g></g></g></svg>