<?xml version="1.0" standalone="no"?>
<!DOCTYPE svg PUBLIC "-//W3C//DTD SVG 20010904//EN"
 "http://www.w3.org/TR/2001/REC-SVG-20010904/DTD/svg10.dtd">
<svg version="1.0" xmlns="http://www.w3.org/2000/svg"
 width="860.000000pt" height="1110.000000pt" viewBox="0 0 860.000000 1110.000000"
 preserveAspectRatio="xMidYMid meet">

<g transform="translate(0.000000,1110.000000) scale(0.100000,-0.100000)"
fill="#000000" stroke="none">
<path d="M7460 10672 c-129 -8 -236 -15 -237 -16 -1 -1 7 -242 17 -536 25
-685 25 -635 -5 -665 -45 -46 -64 -37 -265 121 -102 80 -190 148 -197 151 -6
2 -113 -72 -237 -166 -231 -175 -257 -189 -297 -158 -37 28 -37 39 -13 616 13
311 21 567 18 570 -10 10 -5510 -340 -5564 -354 -179 -47 -328 -207 -360 -387
-16 -84 293 -8324 315 -8418 41 -174 165 -308 334 -361 70 -21 59 -21 1351
-79 613 -27 1483 -66 3560 -160 976 -44 1827 -81 1890 -82 91 0 128 4 177 20
130 42 239 139 301 269 l37 78 3 4580 c2 4557 2 4580 -18 4646 -38 127 -134
239 -255 298 -115 56 -158 58 -555 33z m-2795 -1672 c688 -47 1179 -295 1482
-750 196 -293 314 -712 317 -1125 l1 -160 -56 -22 c-72 -29 -265 -67 -449 -90
-210 -25 -732 -26 -840 0 -41 9 -90 26 -108 37 l-32 20 0 87 c-1 413 -109 639
-332 699 -70 18 -237 18 -317 -1 -178 -42 -277 -158 -301 -352 -33 -257 102
-473 429 -687 149 -98 210 -133 526 -301 426 -228 618 -345 820 -502 294 -229
510 -504 628 -803 124 -313 157 -718 86 -1064 -128 -631 -604 -1093 -1318
-1277 -336 -87 -741 -110 -1136 -64 -745 86 -1246 390 -1501 910 -146 298
-199 559 -199 983 l0 254 28 24 c57 49 214 79 498 95 401 22 918 -26 1023 -94
22 -15 23 -21 29 -214 13 -434 100 -614 332 -685 101 -32 272 -31 372 0 183
57 274 214 260 451 -11 213 -128 391 -381 580 -129 96 -247 169 -553 342 -462
261 -638 372 -827 522 -386 308 -612 652 -697 1065 -26 126 -37 458 -19 599
80 654 445 1126 1056 1366 328 129 752 185 1179 157z"/>
</g>
</svg>
